<svg xmlns="http://www.w3.org/2000/svg" viewBox="0 0 505 505" width="512" height="512"><path d="M252.5 505c-67.445 0-130.854-26.265-178.544-73.956C26.265 383.354 0 319.945 0 252.5S26.265 121.646 73.956 73.956C121.646 26.265 185.055 0 252.5 0c35.385 0 69.613 7.178 101.736 21.335a7.5 7.5 0 01-6.049 13.726C317.982 21.75 285.788 15 252.5 15c-63.438 0-123.08 24.704-167.938 69.562C39.704 129.42 15 189.062 15 252.5s24.704 123.08 69.563 167.938C129.42 465.296 189.062 490 252.5 490s123.08-24.704 167.938-69.562C465.296 375.58 490 315.938 490 252.5c0-42.136-11.175-83.523-32.316-119.687-20.525-35.109-49.904-64.564-84.961-85.183a7.5 7.5 0 117.604-12.93c37.263 21.916 68.49 53.224 90.307 90.542C493.116 163.701 505 207.706 505 252.5c0 67.445-26.265 130.854-73.956 178.544C383.354 478.735 319.945 505 252.5 505z"/><path d="M252.5 450.378c-109.11 0-197.879-88.768-197.879-197.878S143.39 54.622 252.5 54.622 450.378 143.39 450.378 252.5 361.61 450.378 252.5 450.378zm0-380.756c-100.84 0-182.879 82.039-182.879 182.878S151.66 435.378 252.5 435.378c100.839 0 182.878-82.039 182.878-182.878S353.339 69.622 252.5 69.622z"/><path d="M284.752 415.019c-10.439 0-20.929-2.513-30.333-7.268-22.686-11.47-36.778-34.395-36.778-59.826v-23.559c0-4.142 3.357-7.5 7.5-7.5s7.5 3.358 7.5 7.5v23.559c0 19.742 10.938 37.537 28.547 46.44 7.316 3.699 15.465 5.654 23.564 5.654 11.133 0 21.813-3.531 30.886-10.208 30.311-22.31 66.441-64.03 66.441-136.092 0-6.893-5.607-12.5-12.5-12.5h-32.591c-6.893 0-12.5 5.607-12.5 12.5s5.607 12.5 12.5 12.5h11.438a7.498 7.498 0 017.447 8.386c-4.722 39.671-23.245 71.658-55.055 95.071-8.432 6.205-19.027 7.095-28.351 2.379-9.284-4.693-14.828-13.713-14.828-24.129v-96.428a7.5 7.5 0 017.5-7.5h13.703c6.893 0 12.5-5.607 12.5-12.5s-5.607-12.5-12.5-12.5h-13.703a7.5 7.5 0 01-7.5-7.5v-91.105c0-6.893-5.607-12.5-12.5-12.5h-45.924c-6.893 0-12.5 5.607-12.5 12.5s5.607 12.5 12.5 12.5h25.924a7.5 7.5 0 017.5 7.5v71.105a7.5 7.5 0 01-7.5 7.5h-40.737c-6.893 0-12.5 5.607-12.5 12.5s5.607 12.5 12.5 12.5h40.737a7.5 7.5 0 017.5 7.5v42.867c0 4.142-3.357 7.5-7.5 7.5s-7.5-3.358-7.5-7.5v-35.367h-33.237c-15.163 0-27.5-12.336-27.5-27.5s12.337-27.5 27.5-27.5h33.237v-56.105h-18.424c-15.163 0-27.5-12.336-27.5-27.5s12.337-27.5 27.5-27.5h45.924c15.163 0 27.5 12.336 27.5 27.5v83.605h6.203c15.163 0 27.5 12.336 27.5 27.5s-12.337 27.5-27.5 27.5h-6.203v88.928c0 6.446 4.133 9.498 6.597 10.743 4.229 2.14 8.856 1.748 12.69-1.073 26.062-19.183 42.114-44.848 47.801-76.377h-2.74c-15.163 0-27.5-12.336-27.5-27.5s12.337-27.5 27.5-27.5h32.591c15.163 0 27.5 12.336 27.5 27.5 0 78.331-39.452 123.812-72.549 148.172-11.668 8.588-25.423 13.127-39.777 13.128z"/></svg>